<?xml version="1.0" standalone="no"?><!DOCTYPE svg PUBLIC "-//W3C//DTD SVG 1.1//EN" "http://www.w3.org/Graphics/SVG/1.1/DTD/svg11.dtd"><svg t="1713689043307" class="icon" viewBox="0 0 1024 1024" version="1.1" xmlns="http://www.w3.org/2000/svg" p-id="6538" xmlns:xlink="http://www.w3.org/1999/xlink" width="200" height="200"><path d="M268.501333 567.168a42.666667 42.666667 0 0 1 60.330667 0l150.869333 150.826667a42.666667 42.666667 0 0 0 60.330667 0l150.826667-150.826667a42.666667 42.666667 0 0 1 60.373333 60.330667l-150.869333 150.869333a128 128 0 0 1-180.992 0l-150.869334-150.869333a42.666667 42.666667 0 0 1 0-60.330667z" fill="#13253D" p-id="6539"></path><path d="M512 170.666667a42.666667 42.666667 0 0 1 42.666667 42.666666v554.666667a42.666667 42.666667 0 1 1-85.333334 0V213.333333a42.666667 42.666667 0 0 1 42.666667-42.666666z" fill="#13253D" p-id="6540"></path></svg>