<?xml version="1.0" encoding="UTF-8"?><svg id="Layer_1" xmlns="http://www.w3.org/2000/svg" viewBox="0 0 792 612"><g><path d="M233.33,333.81c-7.7,2.34-13.81,2.27-15.6-.17-1.79-2.45,.04-8.33,4.66-14.98,1.84-2.65,4.11-5.43,6.72-8.26l-4.95-3.66c-2.62,2.88-4.92,5.71-6.8,8.42-8.34,12-7.09,18.63-4.58,22.08,2.15,2.95,5.76,4.44,10.72,4.44,3.32,0,7.26-.69,11.71-2.05,1.16-.36,2.47-.8,3.97-1.37l-5.85-4.47Z"/><path d="M298.56,274.7c-4.54-6.22-16.02-5.81-31.53,1.1l1.86,5.84c3.16-1.43,6.2-2.6,9.04-3.47,3.75-1.14,7.17-1.75,9.91-1.75,2.88,0,4.88,.65,5.78,1.89,1.79,2.45-.04,8.33-4.66,14.98-3.48,5.02-8.43,10.44-14.29,15.67-1.53,1.37-3.11,2.71-4.69,4l-.2,.16,6.19,19.04-16.11-11.7-.21,.14c-1.72,1.16-3.45,2.27-5.14,3.3-4.18,2.55-8.33,4.75-12.35,6.55l5.92-18.21-16.69-12.12h20.62l6.37-19.61,6.37,19.61h14.16c2.69-2.65,5.4-6.44,5.4-6.44h-14.88l-5.36-16.49h-11.39l-5.36,16.49h-17.34l-3.52,10.84,14.03,10.19-5.36,16.49,7.74,5.63,.19-.08c5.28-2.26,10.77-5.17,16.31-8.66l13.93,10.12,9.22-6.7-5.39-16.59c14.36-12.5,28.53-30.46,21.42-40.21Z"/></g><g><path d="M327.34,307.43c-6.05-1.55-7.69-2.32-7.69-4.78v-.1c0-1.97,1.84-3.24,4.69-3.24s5.74,1.11,9.06,3.38l3.8-5.51c-3.62-2.86-7.91-4.31-12.76-4.31-7.11,0-12.08,4.27-12.08,10.37v.1c0,7.06,4.75,8.82,11.47,10.53,5.65,1.45,7.19,2.44,7.19,4.63v.1c0,2.15-2.01,3.49-5.24,3.49-3.62,0-6.93-1.33-10.43-4.18l-4.32,5.18c4,3.51,9.18,5.44,14.61,5.44,7.82,0,12.68-4.09,12.68-10.67v-.1c0-6.22-4.2-8.56-10.97-10.33Z"/><polygon points="354.04 328.03 361.38 328.03 361.38 300.11 372.04 300.11 372.04 293.37 343.38 293.37 343.38 300.11 354.04 300.11 354.04 328.03"/><path d="M469.74,321.9c-5.9,0-10.34-4.81-10.34-11.19v-.1c0-6.32,4.45-11.09,10.34-11.09,3.18,0,5.94,1.2,8.94,3.87l4.67-5.38c-3.77-3.66-7.84-5.23-13.56-5.23-10.31,0-18.08,7.71-18.08,17.93v.1c0,10.16,7.64,17.83,17.78,17.83,5.93,0,10.03-1.76,14.1-6.07l-4.65-4.7c-2.83,2.56-5.27,4.03-9.2,4.03Z"/><path d="M507.37,292.77c-10.36,0-18.48,7.88-18.48,17.93v.1c0,10.16,7.9,17.83,18.38,17.83s18.48-7.88,18.48-17.93v-.1c0-10.16-7.9-17.83-18.38-17.83Zm10.69,18.03c0,6.32-4.6,11.09-10.69,11.09s-10.79-4.92-10.79-11.19v-.1c0-6.32,4.6-11.09,10.69-11.09s10.79,4.92,10.79,11.19v.1Z"/><rect x="534.57" y="293.37" width="7.34" height="34.66"/><polygon points="552.28 293.37 552.28 328.03 559.52 328.03 559.52 305.41 576.75 328.03 583.03 328.03 583.03 293.37 575.8 293.37 575.8 315.3 559.11 293.37 552.28 293.37"/><polygon points="387 293.12 372.15 328.03 379.6 328.03 390.33 301.71 395.16 313.49 397.91 320.29 401.06 328.03 408.72 328.03 393.86 293.12 387 293.12"/><path d="M437.3,315.53c4.76-1.77,7.39-5.56,7.39-10.69v-.1c0-7.12-4.87-11.37-13.03-11.37h-15.83v6.59h15.18c3.96,0,6.24,1.89,6.24,5.19v.1c0,3.17-2.33,5.14-6.09,5.14h-15.33v17.65h7.34v-11.21h6.34l.05,.08,7.45,11.13h8.56l-8.49-12.42,.22-.08Z"/></g></svg>